<svg height="56" viewBox="0 0 56 56" width="56" xmlns="http://www.w3.org/2000/svg"><path d="m27.9999 51.9063c13.0547 0 23.9064-10.8282 23.9064-23.9063 0-13.0547-10.8751-23.9063-23.9298-23.9063-13.0782 0-23.8828 10.8516-23.8828 23.9063 0 13.0781 10.8281 23.9063 23.9062 23.9063zm-12.75-28.4063c-1.0312 0-1.7812-.6563-1.7812-1.6406 0-1.0078.75-1.6641 1.7812-1.6641h25.5703c1.0312 0 1.7578.6563 1.7578 1.6641 0 .9843-.7266 1.6406-1.7578 1.6406zm3.4688 7.7578c-1.0313 0-1.7578-.6562-1.7578-1.6406 0-1.0078.7265-1.6641 1.7578-1.6641h18.6327c1.0313 0 1.7579.6563 1.7579 1.6641 0 .9844-.7266 1.6406-1.7579 1.6406zm3.6327 7.7812c-1.0312 0-1.7812-.6562-1.7812-1.6406 0-1.0078.75-1.664 1.7812-1.664h11.3673c1.0312 0 1.7812.6562 1.7812 1.664 0 .9844-.75 1.6406-1.7812 1.6406z"/></svg>